<svg xmlns="http://www.w3.org/2000/svg" xmlns:xlink="http://www.w3.org/1999/xlink" width="500" zoomAndPan="magnify" viewBox="0 0 375 374.999991" height="500" preserveAspectRatio="xMidYMid meet" version="1.0"><defs><g/><clipPath id="3f65cd85e3"><path d="M 0 0 L 226.960938 0 L 226.960938 227.175781 L 0 227.175781 Z M 0 0 " clip-rule="nonzero"/></clipPath><clipPath id="cfeeaf2902"><path d="M 113.371094 227.175781 C 83.046875 227.175781 54.488281 215.371094 33.0625 193.898438 C 11.585938 172.46875 -0.214844 143.914062 -0.214844 113.589844 C -0.214844 83.261719 11.585938 54.707031 33.0625 33.277344 C 54.488281 11.804688 83.046875 0 113.371094 0 C 143.699219 0 172.253906 11.804688 193.683594 33.277344 C 215.15625 54.75 226.960938 83.261719 226.960938 113.589844 C 226.960938 143.914062 215.15625 172.46875 193.683594 193.898438 C 172.253906 215.371094 143.699219 227.175781 113.371094 227.175781 Z M 113.371094 6.808594 C 84.863281 6.808594 58.03125 17.933594 37.875 38.089844 C 17.714844 58.246094 6.59375 85.078125 6.59375 113.589844 C 6.59375 142.097656 17.714844 168.929688 37.875 189.085938 C 58.03125 209.242188 84.863281 220.367188 113.371094 220.367188 C 141.882812 220.367188 168.714844 209.242188 188.871094 189.085938 C 209.027344 168.929688 220.152344 142.097656 220.152344 113.589844 C 220.152344 85.078125 209.027344 58.246094 188.871094 38.089844 C 168.714844 17.933594 141.882812 6.808594 113.371094 6.808594 Z M 113.371094 6.808594 " clip-rule="nonzero"/></clipPath><clipPath id="c4b6b8ad0b"><path d="M 76.257812 76 L 144 76 L 144 84 L 76.257812 84 Z M 76.257812 76 " clip-rule="nonzero"/></clipPath><clipPath id="b35571a200"><path d="M 76.257812 76 L 78 76 L 78 78 L 76.257812 78 Z M 76.257812 76 " clip-rule="nonzero"/></clipPath><clipPath id="f94998604f"><path d="M 96 104 L 123 104 L 123 111 L 96 111 Z M 96 104 " clip-rule="nonzero"/></clipPath><clipPath id="168815a103"><path d="M 116 50 L 150.507812 50 L 150.507812 59 L 116 59 Z M 116 50 " clip-rule="nonzero"/></clipPath><clipPath id="5a92b59513"><path d="M 116 37.5 L 149 37.5 L 149 52 L 116 52 Z M 116 37.5 " clip-rule="nonzero"/></clipPath></defs><rect x="-37.5" width="450" fill="#ffffff" y="-37.499999" height="449.999989" fill-opacity="1"/><rect x="-37.5" width="450" fill="#ffffff" y="-37.499999" height="449.999989" fill-opacity="1"/><g clip-path="url(#3f65cd85e3)"><g clip-path="url(#cfeeaf2902)"><path fill="#000000" d="M -0.214844 0 L 226.960938 0 L 226.960938 227.175781 L -0.214844 227.175781 Z M -0.214844 0 " fill-opacity="1" fill-rule="nonzero"/></g></g><g fill="#0f151c" fill-opacity="1"><g transform="translate(78.020493, 140.320918)"><g><path d="M 2.71875 0 L 2.71875 -22.203125 L 7.640625 -22.203125 L 11.421875 -11.8125 C 11.679688 -11.0625 12.132812 -9.632812 12.78125 -7.53125 L 12.921875 -7.53125 C 13.054688 -7.9375 13.269531 -8.625 13.5625 -9.59375 C 13.851562 -10.5625 14.085938 -11.300781 14.265625 -11.8125 L 17.953125 -22.203125 L 22.875 -22.203125 L 22.875 0 L 18.84375 0 L 18.84375 -9.265625 C 18.84375 -10.316406 19.023438 -12.742188 19.390625 -16.546875 L 19.25 -16.546875 L 17.46875 -11.34375 L 14.03125 -2.015625 L 11.484375 -2.015625 L 8.03125 -11.34375 L 6.265625 -16.546875 L 6.15625 -16.546875 C 6.519531 -12.742188 6.703125 -10.316406 6.703125 -9.265625 L 6.703125 0 Z M 2.71875 0 "/></g></g></g><g fill="#0f151c" fill-opacity="1"><g transform="translate(105.725959, 140.320918)"><g><path d="M 2.71875 0 L 2.71875 -22.203125 L 16.34375 -22.203125 L 16.34375 -18.515625 L 7.171875 -18.515625 L 7.171875 -13.390625 L 14.96875 -13.390625 L 14.96875 -9.671875 L 7.171875 -9.671875 L 7.171875 -3.71875 L 16.671875 -3.71875 L 16.671875 0 Z M 2.71875 0 "/></g></g></g><g fill="#0f151c" fill-opacity="1"><g transform="translate(126.253691, 140.320918)"><g><path d="M 2.71875 0 L 2.71875 -22.203125 L 7.265625 -22.203125 L 13.71875 -10.375 L 15.9375 -5.5625 L 16.078125 -5.5625 C 15.691406 -9.4375 15.5 -12.035156 15.5 -13.359375 L 15.5 -22.203125 L 19.71875 -22.203125 L 19.71875 0 L 15.203125 0 L 8.796875 -11.890625 L 6.53125 -16.640625 L 6.390625 -16.640625 C 6.410156 -16.367188 6.484375 -15.613281 6.609375 -14.375 C 6.734375 -13.132812 6.816406 -12.101562 6.859375 -11.28125 C 6.910156 -10.457031 6.9375 -9.664062 6.9375 -8.90625 L 6.9375 0 Z M 2.71875 0 "/></g></g></g><g fill="#0f151c" fill-opacity="1"><g transform="translate(78.020493, 173.320916)"><g><path d="M 2.71875 0 L 2.71875 -22.203125 L 7.640625 -22.203125 L 11.421875 -11.8125 C 11.679688 -11.0625 12.132812 -9.632812 12.78125 -7.53125 L 12.921875 -7.53125 C 13.054688 -7.9375 13.269531 -8.625 13.5625 -9.59375 C 13.851562 -10.5625 14.085938 -11.300781 14.265625 -11.8125 L 17.953125 -22.203125 L 22.875 -22.203125 L 22.875 0 L 18.84375 0 L 18.84375 -9.265625 C 18.84375 -10.316406 19.023438 -12.742188 19.390625 -16.546875 L 19.25 -16.546875 L 17.46875 -11.34375 L 14.03125 -2.015625 L 11.484375 -2.015625 L 8.03125 -11.34375 L 6.265625 -16.546875 L 6.15625 -16.546875 C 6.519531 -12.742188 6.703125 -10.316406 6.703125 -9.265625 L 6.703125 0 Z M 2.71875 0 "/></g></g></g><g fill="#0f151c" fill-opacity="1"><g transform="translate(105.725959, 173.320916)"><g><path d="M 2.71875 0 L 2.71875 -22.203125 L 16.34375 -22.203125 L 16.34375 -18.515625 L 7.171875 -18.515625 L 7.171875 -13.390625 L 14.96875 -13.390625 L 14.96875 -9.671875 L 7.171875 -9.671875 L 7.171875 -3.71875 L 16.671875 -3.71875 L 16.671875 0 Z M 2.71875 0 "/></g></g></g><g fill="#0f151c" fill-opacity="1"><g transform="translate(126.253691, 173.320916)"><g><path d="M 2.71875 0 L 2.71875 -22.203125 L 7.265625 -22.203125 L 13.71875 -10.375 L 15.9375 -5.5625 L 16.078125 -5.5625 C 15.691406 -9.4375 15.5 -12.035156 15.5 -13.359375 L 15.5 -22.203125 L 19.71875 -22.203125 L 19.71875 0 L 15.203125 0 L 8.796875 -11.890625 L 6.53125 -16.640625 L 6.390625 -16.640625 C 6.410156 -16.367188 6.484375 -15.613281 6.609375 -14.375 C 6.734375 -13.132812 6.816406 -12.101562 6.859375 -11.28125 C 6.910156 -10.457031 6.9375 -9.664062 6.9375 -8.90625 L 6.9375 0 Z M 2.71875 0 "/></g></g></g><g fill="#0f151c" fill-opacity="1"><g transform="translate(95.671447, 197.904407)"><g><path d="M 0.46875 0 L 0.46875 -0.984375 L 4.265625 -6.796875 L 0.84375 -6.796875 L 0.84375 -8.140625 L 6.265625 -8.140625 L 6.265625 -7.171875 L 2.46875 -1.359375 L 6.3125 -1.359375 L 6.3125 0 Z M 0.46875 0 "/></g></g></g><g fill="#0f151c" fill-opacity="1"><g transform="translate(102.622014, 197.904407)"><g><path d="M 1 0 L 1 -8.140625 L 2.625 -8.140625 L 2.625 0 Z M 1 0 "/></g></g></g><g fill="#0f151c" fill-opacity="1"><g transform="translate(106.45956, 197.904407)"><g><path d="M 2.625 -6.859375 L 2.625 -4.375 L 3.6875 -4.375 C 4.769531 -4.375 5.3125 -4.804688 5.3125 -5.671875 C 5.3125 -6.097656 5.175781 -6.398438 4.90625 -6.578125 C 4.632812 -6.765625 4.226562 -6.859375 3.6875 -6.859375 Z M 7.25 0 L 5.4375 0 L 3.765625 -3.078125 L 2.625 -3.078125 L 2.625 0 L 1 0 L 1 -8.140625 L 3.828125 -8.140625 C 5.867188 -8.140625 6.890625 -7.316406 6.890625 -5.671875 C 6.890625 -4.515625 6.375 -3.734375 5.34375 -3.328125 Z M 7.25 0 "/></g></g></g><g fill="#0f151c" fill-opacity="1"><g transform="translate(114.172281, 197.904407)"><g><path d="M 6.859375 -0.984375 C 6.191406 -0.222656 5.3125 0.15625 4.21875 0.15625 C 3.132812 0.15625 2.257812 -0.222656 1.59375 -0.984375 C 0.925781 -1.753906 0.59375 -2.796875 0.59375 -4.109375 C 0.59375 -5.410156 0.925781 -6.429688 1.59375 -7.171875 C 2.257812 -7.921875 3.140625 -8.296875 4.234375 -8.296875 C 5.328125 -8.296875 6.207031 -7.921875 6.875 -7.171875 C 7.539062 -6.429688 7.875 -5.410156 7.875 -4.109375 C 7.875 -2.796875 7.535156 -1.753906 6.859375 -0.984375 Z M 2.78125 -2.015625 C 3.132812 -1.503906 3.613281 -1.25 4.21875 -1.25 C 4.832031 -1.25 5.316406 -1.503906 5.671875 -2.015625 C 6.035156 -2.535156 6.21875 -3.226562 6.21875 -4.09375 C 6.21875 -4.96875 6.035156 -5.648438 5.671875 -6.140625 C 5.316406 -6.640625 4.832031 -6.890625 4.21875 -6.890625 C 3.613281 -6.890625 3.132812 -6.644531 2.78125 -6.15625 C 2.425781 -5.664062 2.25 -4.984375 2.25 -4.109375 C 2.25 -3.234375 2.425781 -2.535156 2.78125 -2.015625 Z M 2.78125 -2.015625 "/></g></g></g><g fill="#0f151c" fill-opacity="1"><g transform="translate(122.851112, 197.904407)"><g><path d="M 4.125 0.15625 C 2.007812 0.15625 0.953125 -1.113281 0.953125 -3.65625 L 0.953125 -8.140625 L 2.59375 -8.140625 L 2.59375 -3.53125 C 2.59375 -2.707031 2.722656 -2.117188 2.984375 -1.765625 C 3.242188 -1.421875 3.625 -1.25 4.125 -1.25 C 4.644531 -1.25 5.035156 -1.425781 5.296875 -1.78125 C 5.566406 -2.132812 5.703125 -2.71875 5.703125 -3.53125 L 5.703125 -8.140625 L 7.265625 -8.140625 L 7.265625 -3.65625 C 7.265625 -1.113281 6.21875 0.15625 4.125 0.15625 Z M 4.125 0.15625 "/></g></g></g><g clip-path="url(#c4b6b8ad0b)"><path fill="#0f151c" d="M 78.597656 81.957031 L 140.90625 81.957031 C 141.21875 80.535156 141.429688 79.082031 141.542969 77.625 L 77.960938 77.625 C 78.074219 79.082031 78.289062 80.535156 78.597656 81.957031 Z M 141.542969 83.554688 L 77.960938 83.554688 C 77.589844 83.554688 77.269531 83.300781 77.183594 82.941406 C 76.730469 81.042969 76.441406 79.082031 76.324219 77.121094 C 76.324219 77.117188 76.324219 77.117188 76.324219 77.113281 C 76.316406 77.03125 76.3125 76.949219 76.308594 76.863281 C 76.296875 76.644531 76.378906 76.433594 76.527344 76.273438 C 76.679688 76.117188 76.886719 76.027344 77.105469 76.027344 L 142.398438 76.027344 C 142.617188 76.027344 142.828125 76.117188 142.976562 76.273438 C 143.128906 76.433594 143.207031 76.644531 143.199219 76.863281 C 143.195312 76.949219 143.1875 77.03125 143.183594 77.113281 C 143.183594 77.117188 143.183594 77.117188 143.183594 77.121094 C 143.066406 79.082031 142.777344 81.039062 142.324219 82.941406 C 142.234375 83.300781 141.914062 83.554688 141.542969 83.554688 " fill-opacity="1" fill-rule="nonzero"/></g><path fill="#0f151c" d="M 121.964844 106.25 C 121.648438 106.25 121.347656 106.058594 121.222656 105.75 C 121.054688 105.339844 121.253906 104.871094 121.664062 104.707031 C 127.523438 102.347656 132.511719 98.332031 136.09375 93.101562 C 136.339844 92.734375 136.839844 92.644531 137.203125 92.890625 C 137.566406 93.140625 137.660156 93.640625 137.410156 94.003906 C 133.652344 99.496094 128.414062 103.710938 122.261719 106.191406 C 122.164062 106.230469 122.0625 106.25 121.964844 106.25 " fill-opacity="1" fill-rule="nonzero"/><path fill="#0f151c" d="M 97.542969 106.25 C 97.441406 106.25 97.339844 106.230469 97.242188 106.191406 C 91.089844 103.710938 85.851562 99.496094 82.09375 94.003906 C 81.84375 93.640625 81.9375 93.140625 82.304688 92.890625 C 82.667969 92.644531 83.164062 92.734375 83.414062 93.101562 C 86.992188 98.332031 91.984375 102.347656 97.839844 104.707031 C 98.25 104.871094 98.449219 105.339844 98.285156 105.75 C 98.160156 106.058594 97.859375 106.25 97.542969 106.25 " fill-opacity="1" fill-rule="nonzero"/><g clip-path="url(#b35571a200)"><path fill="#0f151c" d="M 77.121094 77.871094 C 76.796875 77.871094 76.5 77.671875 76.378906 77.371094 C 76.257812 77.066406 76.332031 76.71875 76.566406 76.492188 C 76.886719 76.1875 77.394531 76.199219 77.699219 76.515625 C 77.847656 76.671875 77.921875 76.871094 77.921875 77.070312 C 77.921875 77.070312 77.921875 77.070312 77.921875 77.074219 C 77.921875 77.515625 77.5625 77.871094 77.121094 77.871094 " fill-opacity="1" fill-rule="nonzero"/></g><path fill="#0f151c" d="M 142.382812 77.871094 C 141.941406 77.871094 141.585938 77.515625 141.585938 77.074219 C 141.585938 77.070312 141.585938 77.070312 141.585938 77.070312 C 141.585938 76.867188 141.664062 76.664062 141.820312 76.503906 C 142.128906 76.195312 142.636719 76.195312 142.949219 76.503906 C 143.179688 76.734375 143.246094 77.078125 143.125 77.378906 C 143 77.675781 142.707031 77.871094 142.382812 77.871094 " fill-opacity="1" fill-rule="nonzero"/><g clip-path="url(#f94998604f)"><path fill="#0f151c" d="M 98.34375 109.460938 L 121.164062 109.460938 L 121.164062 106.152344 L 98.34375 106.152344 Z M 121.964844 111.0625 L 97.542969 111.0625 C 97.101562 111.0625 96.742188 110.703125 96.742188 110.261719 L 96.742188 105.351562 C 96.742188 104.910156 97.101562 104.550781 97.542969 104.550781 L 121.964844 104.550781 C 122.40625 104.550781 122.761719 104.910156 122.761719 105.351562 L 122.761719 110.261719 C 122.761719 110.703125 122.40625 111.0625 121.964844 111.0625 " fill-opacity="1" fill-rule="nonzero"/></g><path fill="#0f151c" d="M 83.179688 92.753906 L 136.328125 92.753906 C 138.214844 89.914062 139.621094 86.828125 140.515625 83.554688 L 78.992188 83.554688 C 79.886719 86.828125 81.292969 89.914062 83.179688 92.753906 Z M 136.75 94.351562 L 82.753906 94.351562 C 82.492188 94.351562 82.242188 94.222656 82.09375 94.003906 C 79.785156 90.628906 78.132812 86.90625 77.183594 82.941406 C 77.125 82.703125 77.183594 82.453125 77.332031 82.261719 C 77.484375 82.070312 77.714844 81.957031 77.960938 81.957031 L 141.542969 81.957031 C 141.789062 81.957031 142.019531 82.070312 142.171875 82.261719 C 142.324219 82.453125 142.378906 82.703125 142.324219 82.941406 C 141.371094 86.90625 139.71875 90.628906 137.410156 94.003906 C 137.261719 94.222656 137.015625 94.351562 136.75 94.351562 " fill-opacity="1" fill-rule="nonzero"/><path fill="#0f151c" d="M 104.15625 57.976562 L 104.15625 58.679688 L 104.667969 58.625 L 104.667969 57.90625 Z M 103.269531 60.378906 C 103.019531 60.378906 102.78125 60.261719 102.628906 60.0625 C 102.460938 59.835938 102.421875 59.539062 102.527344 59.28125 C 102.546875 59.234375 102.554688 59.183594 102.554688 59.128906 L 102.554688 57.28125 C 102.554688 56.882812 102.851562 56.542969 103.246094 56.488281 L 105.359375 56.199219 C 105.589844 56.167969 105.820312 56.234375 105.992188 56.386719 C 106.167969 56.539062 106.265625 56.757812 106.265625 56.992188 L 106.265625 59.128906 C 106.265625 59.15625 106.269531 59.175781 106.273438 59.195312 C 106.3125 59.414062 106.261719 59.640625 106.128906 59.820312 C 105.996094 60 105.792969 60.113281 105.570312 60.136719 L 103.355469 60.375 C 103.324219 60.378906 103.296875 60.378906 103.269531 60.378906 " fill-opacity="1" fill-rule="nonzero"/><path fill="#0f151c" d="M 108.65625 57.359375 L 108.65625 58.199219 L 109.515625 58.109375 L 109.515625 57.242188 Z M 111.109375 58.714844 Z M 110.316406 58.8125 L 111.117188 58.8125 Z M 107.859375 59.890625 C 107.660156 59.890625 107.472656 59.816406 107.324219 59.683594 C 107.15625 59.53125 107.058594 59.316406 107.058594 59.089844 L 107.058594 56.660156 C 107.058594 56.261719 107.351562 55.925781 107.75 55.871094 L 110.207031 55.53125 C 110.4375 55.5 110.667969 55.570312 110.84375 55.722656 C 111.015625 55.871094 111.117188 56.09375 111.117188 56.324219 L 111.117188 58.792969 C 111.125 58.980469 111.066406 59.167969 110.949219 59.320312 C 110.816406 59.488281 110.617188 59.597656 110.402344 59.621094 L 107.941406 59.886719 C 107.914062 59.886719 107.886719 59.890625 107.859375 59.890625 " fill-opacity="1" fill-rule="nonzero"/><path fill="#0f151c" d="M 113.507812 56.695312 L 113.507812 57.683594 L 114.480469 57.578125 L 114.480469 56.558594 Z M 112.707031 59.371094 C 112.511719 59.371094 112.320312 59.300781 112.171875 59.167969 C 112.003906 59.015625 111.90625 58.800781 111.90625 58.574219 L 111.90625 55.996094 C 111.90625 55.597656 112.203125 55.257812 112.597656 55.203125 L 115.171875 54.851562 C 115.402344 54.820312 115.632812 54.886719 115.804688 55.039062 C 115.980469 55.191406 116.082031 55.410156 116.082031 55.644531 L 116.082031 58.296875 C 116.082031 58.707031 115.773438 59.050781 115.367188 59.09375 L 112.792969 59.367188 C 112.761719 59.371094 112.734375 59.371094 112.707031 59.371094 " fill-opacity="1" fill-rule="nonzero"/><g clip-path="url(#168815a103)"><path fill="#0f151c" d="M 118.46875 56.011719 L 118.46875 57.152344 L 147.914062 54.007812 C 148.1875 53.980469 148.429688 53.847656 148.601562 53.632812 C 148.769531 53.417969 148.847656 53.152344 148.8125 52.878906 C 148.75 52.375 148.320312 51.992188 147.808594 51.992188 C 147.761719 51.992188 147.71875 51.996094 147.667969 52 Z M 117.671875 58.84375 C 117.472656 58.84375 117.285156 58.769531 117.136719 58.636719 C 116.96875 58.484375 116.871094 58.269531 116.871094 58.042969 L 116.871094 55.3125 C 116.871094 54.914062 117.164062 54.578125 117.5625 54.519531 L 147.453125 50.417969 C 147.574219 50.398438 147.695312 50.390625 147.808594 50.390625 C 149.128906 50.390625 150.242188 51.378906 150.402344 52.6875 C 150.484375 53.386719 150.292969 54.078125 149.851562 54.628906 C 149.414062 55.179688 148.785156 55.523438 148.085938 55.601562 L 117.757812 58.835938 C 117.726562 58.839844 117.699219 58.84375 117.671875 58.84375 " fill-opacity="1" fill-rule="nonzero"/></g><path fill="#0f151c" d="M 104.15625 53.203125 L 104.15625 53.953125 L 104.667969 53.792969 L 104.667969 53.027344 Z M 103.355469 55.835938 C 103.1875 55.835938 103.019531 55.78125 102.882812 55.679688 C 102.675781 55.53125 102.554688 55.292969 102.554688 55.035156 L 102.554688 53.027344 C 102.554688 52.984375 102.550781 52.945312 102.539062 52.910156 C 102.394531 52.492188 102.617188 52.039062 103.035156 51.894531 L 105.207031 51.148438 C 105.453125 51.066406 105.722656 51.105469 105.933594 51.253906 C 106.144531 51.40625 106.265625 51.648438 106.265625 51.90625 L 106.265625 54.382812 C 106.265625 54.734375 106.039062 55.042969 105.703125 55.148438 L 103.59375 55.800781 C 103.515625 55.824219 103.433594 55.835938 103.355469 55.835938 " fill-opacity="1" fill-rule="nonzero"/><path fill="#0f151c" d="M 108.65625 51.65625 L 108.65625 52.558594 L 109.515625 52.292969 L 109.515625 51.363281 Z M 107.859375 54.445312 C 107.6875 54.445312 107.523438 54.390625 107.382812 54.289062 C 107.179688 54.136719 107.058594 53.898438 107.058594 53.644531 L 107.058594 51.085938 C 107.058594 50.746094 107.273438 50.441406 107.597656 50.332031 L 110.058594 49.488281 C 110.300781 49.402344 110.570312 49.441406 110.78125 49.59375 C 110.992188 49.742188 111.117188 49.984375 111.117188 50.242188 L 111.117188 52.882812 C 111.117188 53.234375 110.886719 53.542969 110.554688 53.648438 L 108.09375 54.40625 C 108.015625 54.433594 107.9375 54.445312 107.859375 54.445312 " fill-opacity="1" fill-rule="nonzero"/><path fill="#0f151c" d="M 111.914062 49.519531 Z M 113.507812 49.996094 L 113.507812 51.058594 L 114.480469 50.757812 L 114.480469 49.660156 Z M 112.707031 52.941406 C 112.539062 52.941406 112.371094 52.890625 112.230469 52.789062 C 112.027344 52.636719 111.90625 52.398438 111.90625 52.144531 L 111.90625 49.460938 C 111.890625 49.109375 112.109375 48.785156 112.445312 48.667969 L 115.023438 47.785156 C 115.265625 47.703125 115.535156 47.742188 115.746094 47.890625 C 115.957031 48.042969 116.082031 48.285156 116.082031 48.542969 L 116.082031 51.347656 C 116.082031 51.699219 115.851562 52.007812 115.515625 52.109375 L 112.941406 52.90625 C 112.867188 52.929688 112.785156 52.941406 112.707031 52.941406 " fill-opacity="1" fill-rule="nonzero"/><g clip-path="url(#5a92b59513)"><path fill="#0f151c" d="M 118.46875 48.292969 L 118.46875 49.523438 L 145.75 41.082031 C 146.011719 41 146.226562 40.820312 146.351562 40.578125 C 146.476562 40.335938 146.5 40.058594 146.414062 39.800781 C 146.277344 39.382812 145.890625 39.101562 145.453125 39.101562 C 145.34375 39.101562 145.230469 39.121094 145.121094 39.15625 Z M 117.671875 51.40625 C 117.503906 51.40625 117.335938 51.351562 117.195312 51.25 C 116.992188 51.101562 116.871094 50.863281 116.871094 50.605469 L 116.871094 48.066406 C 116.871094 48.027344 116.867188 47.992188 116.855469 47.957031 C 116.738281 47.546875 116.964844 47.121094 117.367188 46.980469 L 144.605469 37.644531 C 144.882812 37.550781 145.164062 37.503906 145.453125 37.503906 C 146.585938 37.503906 147.582031 38.226562 147.933594 39.304688 C 148.152344 39.976562 148.09375 40.6875 147.773438 41.3125 C 147.445312 41.941406 146.898438 42.402344 146.222656 42.609375 L 117.90625 51.371094 C 117.828125 51.394531 117.75 51.40625 117.671875 51.40625 " fill-opacity="1" fill-rule="nonzero"/></g><path fill="#0f151c" d="M 114.628906 77.625 C 114.328125 77.625 114.039062 77.457031 113.902344 77.164062 C 113.59375 76.503906 113.441406 75.777344 113.441406 74.941406 C 113.441406 73.21875 114.070312 72.324219 114.628906 71.539062 C 115.125 70.832031 115.519531 70.273438 115.519531 69.058594 C 115.519531 67.839844 115.125 67.28125 114.628906 66.574219 C 114.070312 65.789062 113.441406 64.898438 113.441406 63.171875 C 113.441406 61.445312 114.070312 60.554688 114.625 59.769531 C 114.792969 59.53125 114.949219 59.308594 115.085938 59.070312 C 115.300781 58.6875 115.789062 58.550781 116.175781 58.765625 C 116.558594 58.984375 116.695312 59.472656 116.480469 59.855469 C 116.304688 60.164062 116.117188 60.433594 115.933594 60.691406 C 115.433594 61.398438 115.039062 61.953125 115.039062 63.171875 C 115.039062 64.390625 115.433594 64.945312 115.933594 65.652344 C 116.488281 66.441406 117.121094 67.332031 117.121094 69.058594 C 117.121094 70.78125 116.488281 71.675781 115.933594 72.460938 C 115.433594 73.167969 115.039062 73.726562 115.039062 74.941406 C 115.039062 75.542969 115.140625 76.035156 115.351562 76.484375 C 115.539062 76.886719 115.367188 77.363281 114.96875 77.550781 C 114.859375 77.601562 114.742188 77.625 114.628906 77.625 " fill-opacity="1" fill-rule="nonzero"/><path fill="#0f151c" d="M 109.820312 77.625 C 109.519531 77.625 109.230469 77.457031 109.09375 77.164062 C 108.785156 76.503906 108.632812 75.777344 108.632812 74.941406 C 108.632812 73.21875 109.265625 72.324219 109.820312 71.539062 C 110.320312 70.832031 110.710938 70.273438 110.710938 69.058594 C 110.710938 67.839844 110.320312 67.28125 109.820312 66.574219 C 109.265625 65.789062 108.632812 64.898438 108.632812 63.171875 C 108.632812 61.445312 109.265625 60.554688 109.820312 59.765625 C 109.925781 59.617188 110.027344 59.476562 110.121094 59.328125 C 110.359375 58.957031 110.855469 58.851562 111.226562 59.09375 C 111.597656 59.332031 111.703125 59.828125 111.460938 60.199219 C 111.351562 60.371094 111.238281 60.535156 111.125 60.691406 C 110.628906 61.394531 110.234375 61.953125 110.234375 63.171875 C 110.234375 64.390625 110.625 64.945312 111.125 65.652344 C 111.683594 66.441406 112.3125 67.332031 112.3125 69.058594 C 112.3125 70.78125 111.683594 71.675781 111.125 72.460938 C 110.625 73.167969 110.234375 73.726562 110.234375 74.941406 C 110.234375 75.542969 110.332031 76.035156 110.542969 76.484375 C 110.730469 76.886719 110.558594 77.363281 110.160156 77.550781 C 110.050781 77.601562 109.933594 77.625 109.820312 77.625 " fill-opacity="1" fill-rule="nonzero"/><path fill="#0f151c" d="M 105.371094 77.625 C 105.070312 77.625 104.78125 77.457031 104.644531 77.164062 C 104.335938 76.503906 104.183594 75.777344 104.183594 74.941406 C 104.183594 73.21875 104.816406 72.324219 105.371094 71.539062 C 105.871094 70.832031 106.261719 70.273438 106.261719 69.058594 C 106.261719 67.839844 105.871094 67.28125 105.371094 66.574219 C 104.816406 65.789062 104.183594 64.898438 104.183594 63.171875 C 104.183594 61.445312 104.816406 60.554688 105.371094 59.765625 L 105.414062 59.707031 C 105.671875 59.34375 106.167969 59.257812 106.53125 59.511719 C 106.890625 59.769531 106.976562 60.269531 106.722656 60.628906 L 106.679688 60.691406 C 106.179688 61.394531 105.785156 61.953125 105.785156 63.171875 C 105.785156 64.390625 106.175781 64.945312 106.675781 65.652344 C 107.234375 66.441406 107.863281 67.332031 107.863281 69.058594 C 107.863281 70.78125 107.234375 71.675781 106.675781 72.460938 C 106.175781 73.167969 105.785156 73.726562 105.785156 74.941406 C 105.785156 75.542969 105.882812 76.035156 106.09375 76.484375 C 106.28125 76.886719 106.109375 77.363281 105.710938 77.550781 C 105.601562 77.601562 105.484375 77.625 105.371094 77.625 " fill-opacity="1" fill-rule="nonzero"/><path fill="#0f151c" d="M 101.351562 77.625 C 101.050781 77.625 100.765625 77.457031 100.628906 77.164062 C 100.316406 76.503906 100.167969 75.777344 100.167969 74.941406 C 100.167969 73.21875 100.796875 72.324219 101.351562 71.539062 C 101.851562 70.832031 102.246094 70.273438 102.246094 69.058594 C 102.246094 67.839844 101.851562 67.28125 101.351562 66.574219 C 100.796875 65.789062 100.167969 64.898438 100.167969 63.171875 C 100.167969 61.449219 100.820312 60.523438 101.296875 59.847656 C 101.550781 59.484375 102.050781 59.398438 102.410156 59.652344 C 102.773438 59.90625 102.859375 60.40625 102.605469 60.765625 C 102.171875 61.378906 101.765625 61.957031 101.765625 63.171875 C 101.765625 64.390625 102.160156 64.945312 102.660156 65.652344 C 103.214844 66.441406 103.84375 67.332031 103.84375 69.058594 C 103.84375 70.78125 103.214844 71.675781 102.660156 72.460938 C 102.160156 73.167969 101.765625 73.726562 101.765625 74.941406 C 101.765625 75.542969 101.863281 76.035156 102.074219 76.484375 C 102.261719 76.886719 102.089844 77.363281 101.691406 77.550781 C 101.582031 77.601562 101.464844 77.625 101.351562 77.625 " fill-opacity="1" fill-rule="nonzero"/><path fill="#0f151c" d="M 102.160156 52.628906 C 101.941406 52.628906 101.765625 52.808594 101.765625 53.027344 L 101.765625 59.128906 C 101.765625 59.324219 101.902344 59.484375 102.089844 59.519531 C 102.113281 59.523438 102.136719 59.527344 102.160156 59.527344 C 102.324219 59.527344 102.46875 59.429688 102.527344 59.277344 C 102.546875 59.234375 102.554688 59.183594 102.554688 59.128906 L 102.554688 53.027344 C 102.554688 52.984375 102.550781 52.945312 102.539062 52.910156 C 102.539062 52.90625 102.535156 52.902344 102.535156 52.902344 C 102.492188 52.765625 102.359375 52.628906 102.160156 52.628906 Z M 102.160156 61.125 C 102.042969 61.125 101.925781 61.113281 101.8125 61.09375 C 100.859375 60.925781 100.167969 60.101562 100.167969 59.128906 L 100.167969 53.027344 C 100.167969 51.925781 101.0625 51.03125 102.160156 51.03125 C 103.023438 51.03125 103.78125 51.582031 104.054688 52.398438 C 104.121094 52.597656 104.15625 52.808594 104.15625 53.027344 L 104.15625 59.128906 C 104.15625 59.390625 104.105469 59.640625 104.011719 59.878906 C 103.703125 60.636719 102.976562 61.125 102.160156 61.125 " fill-opacity="1" fill-rule="nonzero"/><path fill="#0f151c" d="M 106.484375 59.484375 C 106.539062 59.511719 106.597656 59.527344 106.664062 59.527344 C 106.882812 59.527344 107.058594 59.347656 107.058594 59.128906 L 107.058594 50.964844 C 107.058594 50.859375 107.015625 50.761719 106.945312 50.6875 C 106.867188 50.609375 106.769531 50.570312 106.664062 50.570312 C 106.445312 50.570312 106.265625 50.746094 106.265625 50.964844 L 106.265625 59.128906 C 106.265625 59.15625 106.269531 59.175781 106.273438 59.195312 C 106.292969 59.316406 106.363281 59.414062 106.464844 59.472656 C 106.472656 59.476562 106.476562 59.480469 106.484375 59.484375 Z M 106.664062 61.125 C 106.3125 61.125 105.96875 61.03125 105.667969 60.859375 C 105.65625 60.851562 105.648438 60.847656 105.636719 60.839844 C 105.140625 60.542969 104.800781 60.050781 104.699219 59.484375 C 104.679688 59.371094 104.667969 59.25 104.667969 59.128906 L 104.667969 50.964844 C 104.667969 49.863281 105.5625 48.96875 106.664062 48.96875 C 107.195312 48.96875 107.699219 49.175781 108.074219 49.554688 C 108.449219 49.929688 108.65625 50.429688 108.65625 50.964844 L 108.65625 59.128906 C 108.65625 60.230469 107.761719 61.125 106.664062 61.125 " fill-opacity="1" fill-rule="nonzero"/><path fill="#0f151c" d="M 111.90625 49.445312 L 112.707031 49.445312 Z M 111.910156 49.519531 C 111.914062 49.519531 111.914062 49.519531 111.914062 49.519531 C 111.914062 49.519531 111.914062 49.519531 111.910156 49.519531 Z M 111.914062 49.519531 Z M 111.109375 58.714844 Z M 111.109375 58.714844 Z M 111.117188 58.792969 C 111.117188 58.800781 111.117188 58.808594 111.117188 58.816406 C 111.117188 58.941406 111.175781 59.050781 111.273438 59.125 C 111.320312 59.164062 111.402344 59.207031 111.511719 59.207031 C 111.730469 59.207031 111.90625 59.027344 111.90625 58.8125 L 111.90625 49.460938 C 111.90625 49.453125 111.90625 49.445312 111.90625 49.4375 C 111.90625 49.335938 111.863281 49.238281 111.792969 49.167969 C 111.714844 49.089844 111.617188 49.050781 111.511719 49.050781 C 111.292969 49.050781 111.117188 49.226562 111.117188 49.445312 Z M 111.511719 60.804688 C 111.074219 60.804688 110.65625 60.664062 110.308594 60.402344 C 109.820312 60.035156 109.535156 59.472656 109.519531 58.863281 C 109.515625 58.84375 109.515625 58.824219 109.515625 58.8125 L 109.515625 49.445312 C 109.515625 48.34375 110.414062 47.449219 111.511719 47.449219 C 112.046875 47.449219 112.546875 47.660156 112.921875 48.035156 C 113.285156 48.394531 113.492188 48.875 113.503906 49.386719 C 113.507812 49.410156 113.507812 49.429688 113.507812 49.445312 L 113.507812 58.8125 C 113.507812 59.910156 112.613281 60.804688 111.511719 60.804688 " fill-opacity="1" fill-rule="nonzero"/><path fill="#0f151c" d="M 116.476562 47.671875 C 116.257812 47.671875 116.082031 47.847656 116.082031 48.066406 L 116.082031 58.492188 C 116.082031 58.621094 116.140625 58.738281 116.246094 58.8125 C 116.292969 58.847656 116.371094 58.886719 116.476562 58.886719 C 116.695312 58.886719 116.871094 58.707031 116.871094 58.492188 L 116.871094 48.066406 C 116.871094 48.027344 116.867188 47.992188 116.855469 47.957031 C 116.839844 47.890625 116.804688 47.835938 116.757812 47.789062 C 116.679688 47.710938 116.582031 47.671875 116.476562 47.671875 Z M 116.476562 60.484375 C 116.058594 60.484375 115.65625 60.355469 115.316406 60.113281 C 114.792969 59.742188 114.480469 59.136719 114.480469 58.492188 L 114.480469 48.066406 C 114.480469 46.964844 115.375 46.070312 116.476562 46.070312 C 117.007812 46.070312 117.511719 46.277344 117.886719 46.65625 C 118.125 46.894531 118.300781 47.195312 118.394531 47.519531 C 118.445312 47.699219 118.46875 47.878906 118.46875 48.066406 L 118.46875 58.492188 C 118.46875 59.589844 117.574219 60.484375 116.476562 60.484375 " fill-opacity="1" fill-rule="nonzero"/></svg>